<mxfile host="app.diagrams.net" modified="2023-09-29T11:02:54.550Z" agent="Mozilla/5.0 (Windows NT 10.0; Win64; x64) AppleWebKit/537.36 (KHTML, like Gecko) Chrome/116.0.5845.2271 YaBrowser/23.9.0.2271 Yowser/2.5 Safari/537.36" etag="oKg958ZoTYDF0NHOfdl3" version="22.0.0" type="google">
  <diagram id="1c0cq12pEuq4zj_ybalU" name="Страница — 1">
    <mxGraphModel grid="0" page="0" gridSize="10" guides="1" tooltips="1" connect="1" arrows="1" fold="1" pageScale="1" pageWidth="827" pageHeight="1169" math="0" shadow="0">
      <root>
        <mxCell id="0" />
        <mxCell id="1" parent="0" />
        <mxCell id="602wP9tqV1aVJvDdz1jR-1" value="Словарь" style="rounded=0;whiteSpace=wrap;html=1;verticalAlign=top;" vertex="1" parent="1">
          <mxGeometry x="337" y="944" width="661" height="783" as="geometry" />
        </mxCell>
        <mxCell id="602wP9tqV1aVJvDdz1jR-2" style="edgeStyle=none;rounded=0;orthogonalLoop=1;jettySize=auto;html=1;endArrow=block;endFill=0;" edge="1" parent="1" source="602wP9tqV1aVJvDdz1jR-3" target="602wP9tqV1aVJvDdz1jR-8">
          <mxGeometry relative="1" as="geometry" />
        </mxCell>
        <mxCell id="602wP9tqV1aVJvDdz1jR-3" value="Ученик" style="shape=umlActor;verticalLabelPosition=bottom;verticalAlign=top;html=1;outlineConnect=0;" vertex="1" parent="1">
          <mxGeometry x="142" y="1336" width="30" height="60" as="geometry" />
        </mxCell>
        <mxCell id="602wP9tqV1aVJvDdz1jR-4" style="rounded=0;orthogonalLoop=1;jettySize=auto;html=1;endArrow=block;endFill=0;" edge="1" parent="1" source="602wP9tqV1aVJvDdz1jR-5" target="602wP9tqV1aVJvDdz1jR-8">
          <mxGeometry relative="1" as="geometry" />
        </mxCell>
        <mxCell id="602wP9tqV1aVJvDdz1jR-5" value="Преподаватель" style="shape=umlActor;verticalLabelPosition=bottom;verticalAlign=top;html=1;outlineConnect=0;" vertex="1" parent="1">
          <mxGeometry x="142" y="1506" width="30" height="60" as="geometry" />
        </mxCell>
        <mxCell id="602wP9tqV1aVJvDdz1jR-6" style="edgeStyle=none;rounded=0;orthogonalLoop=1;jettySize=auto;html=1;entryX=0;entryY=0.5;entryDx=0;entryDy=0;endArrow=none;endFill=0;" edge="1" parent="1" source="602wP9tqV1aVJvDdz1jR-8" target="602wP9tqV1aVJvDdz1jR-10">
          <mxGeometry relative="1" as="geometry" />
        </mxCell>
        <mxCell id="602wP9tqV1aVJvDdz1jR-7" style="edgeStyle=none;rounded=0;orthogonalLoop=1;jettySize=auto;html=1;entryX=0;entryY=0.5;entryDx=0;entryDy=0;endArrow=none;endFill=0;" edge="1" parent="1" source="602wP9tqV1aVJvDdz1jR-8" target="602wP9tqV1aVJvDdz1jR-12">
          <mxGeometry relative="1" as="geometry" />
        </mxCell>
        <mxCell id="602wP9tqV1aVJvDdz1jR-8" value="Пользователь" style="shape=umlActor;verticalLabelPosition=bottom;verticalAlign=top;html=1;outlineConnect=0;" vertex="1" parent="1">
          <mxGeometry x="252" y="1416" width="30" height="60" as="geometry" />
        </mxCell>
        <mxCell id="602wP9tqV1aVJvDdz1jR-9" style="edgeStyle=none;rounded=0;orthogonalLoop=1;jettySize=auto;html=1;dashed=1;endArrow=blockThin;endFill=1;exitX=1;exitY=0.5;exitDx=0;exitDy=0;" edge="1" parent="1" source="602wP9tqV1aVJvDdz1jR-10" target="602wP9tqV1aVJvDdz1jR-22">
          <mxGeometry relative="1" as="geometry">
            <mxPoint x="741" y="1294" as="sourcePoint" />
          </mxGeometry>
        </mxCell>
        <mxCell id="602wP9tqV1aVJvDdz1jR-10" value="Найти слово в словаре" style="ellipse;whiteSpace=wrap;html=1;" vertex="1" parent="1">
          <mxGeometry x="600" y="1238" width="110" height="60" as="geometry" />
        </mxCell>
        <mxCell id="602wP9tqV1aVJvDdz1jR-11" style="edgeStyle=none;rounded=0;orthogonalLoop=1;jettySize=auto;html=1;entryX=0.5;entryY=1;entryDx=0;entryDy=0;dashed=1;endArrow=blockThin;endFill=1;exitX=1;exitY=0.5;exitDx=0;exitDy=0;" edge="1" parent="1" source="602wP9tqV1aVJvDdz1jR-12" target="602wP9tqV1aVJvDdz1jR-22">
          <mxGeometry relative="1" as="geometry">
            <mxPoint x="786" y="1675.73" as="sourcePoint" />
          </mxGeometry>
        </mxCell>
        <mxCell id="602wP9tqV1aVJvDdz1jR-12" value="Просмотреть &lt;br&gt;список слов в словаре пользователя" style="ellipse;whiteSpace=wrap;html=1;" vertex="1" parent="1">
          <mxGeometry x="550" y="1642" width="160" height="70" as="geometry" />
        </mxCell>
        <mxCell id="602wP9tqV1aVJvDdz1jR-13" style="edgeStyle=none;rounded=0;orthogonalLoop=1;jettySize=auto;html=1;entryX=0.069;entryY=0.221;entryDx=0;entryDy=0;entryPerimeter=0;endArrow=blockThin;endFill=1;dashed=1;" edge="1" parent="1" source="602wP9tqV1aVJvDdz1jR-15" target="602wP9tqV1aVJvDdz1jR-12">
          <mxGeometry relative="1" as="geometry" />
        </mxCell>
        <mxCell id="602wP9tqV1aVJvDdz1jR-14" style="edgeStyle=none;rounded=0;orthogonalLoop=1;jettySize=auto;html=1;entryX=0.091;entryY=0.758;entryDx=0;entryDy=0;entryPerimeter=0;dashed=1;fontSize=10;endArrow=blockThin;endFill=1;" edge="1" parent="1" source="602wP9tqV1aVJvDdz1jR-15" target="602wP9tqV1aVJvDdz1jR-10">
          <mxGeometry relative="1" as="geometry" />
        </mxCell>
        <mxCell id="602wP9tqV1aVJvDdz1jR-15" value="Прослушать озвучку произношения" style="ellipse;whiteSpace=wrap;html=1;" vertex="1" parent="1">
          <mxGeometry x="469" y="1429" width="110" height="60" as="geometry" />
        </mxCell>
        <mxCell id="602wP9tqV1aVJvDdz1jR-16" style="edgeStyle=none;rounded=0;orthogonalLoop=1;jettySize=auto;html=1;dashed=1;endArrow=blockThin;endFill=1;" edge="1" parent="1" source="602wP9tqV1aVJvDdz1jR-17" target="602wP9tqV1aVJvDdz1jR-10">
          <mxGeometry relative="1" as="geometry" />
        </mxCell>
        <mxCell id="602wP9tqV1aVJvDdz1jR-17" value="Добавить в словарь пользователя" style="ellipse;whiteSpace=wrap;html=1;" vertex="1" parent="1">
          <mxGeometry x="595" y="1378" width="110" height="60" as="geometry" />
        </mxCell>
        <mxCell id="602wP9tqV1aVJvDdz1jR-18" style="edgeStyle=none;rounded=0;orthogonalLoop=1;jettySize=auto;html=1;dashed=1;endArrow=blockThin;endFill=1;entryX=1;entryY=1;entryDx=0;entryDy=0;" edge="1" parent="1" source="602wP9tqV1aVJvDdz1jR-21" target="602wP9tqV1aVJvDdz1jR-10">
          <mxGeometry relative="1" as="geometry">
            <mxPoint x="725.1369117642514" y="1298.8554612292785" as="targetPoint" />
          </mxGeometry>
        </mxCell>
        <mxCell id="602wP9tqV1aVJvDdz1jR-19" style="edgeStyle=none;rounded=0;orthogonalLoop=1;jettySize=auto;html=1;dashed=1;endArrow=blockThin;endFill=1;entryX=1;entryY=0;entryDx=0;entryDy=0;" edge="1" parent="1" source="602wP9tqV1aVJvDdz1jR-21" target="602wP9tqV1aVJvDdz1jR-12">
          <mxGeometry relative="1" as="geometry">
            <mxPoint x="739" y="1642" as="targetPoint" />
          </mxGeometry>
        </mxCell>
        <mxCell id="602wP9tqV1aVJvDdz1jR-20" style="edgeStyle=none;rounded=0;orthogonalLoop=1;jettySize=auto;html=1;entryX=0;entryY=0.5;entryDx=0;entryDy=0;dashed=1;endArrow=blockThin;endFill=1;" edge="1" parent="1" source="602wP9tqV1aVJvDdz1jR-21" target="602wP9tqV1aVJvDdz1jR-22">
          <mxGeometry relative="1" as="geometry" />
        </mxCell>
        <mxCell id="602wP9tqV1aVJvDdz1jR-21" value="Просмотреть подробную информацию" style="ellipse;whiteSpace=wrap;html=1;" vertex="1" parent="1">
          <mxGeometry x="694" y="1411" width="110" height="60" as="geometry" />
        </mxCell>
        <mxCell id="602wP9tqV1aVJvDdz1jR-22" value="Просмотреть перевод" style="ellipse;whiteSpace=wrap;html=1;" vertex="1" parent="1">
          <mxGeometry x="881" y="1418" width="110" height="61" as="geometry" />
        </mxCell>
        <mxCell id="602wP9tqV1aVJvDdz1jR-23" value="&lt;font style=&quot;font-size: 10px; background-color: rgb(255, 255, 255);&quot;&gt;&amp;lt;&amp;lt;extend&amp;gt;&amp;gt;&lt;/font&gt;" style="text;html=1;strokeColor=none;fillColor=none;align=center;verticalAlign=middle;whiteSpace=wrap;rounded=0;" vertex="1" parent="1">
          <mxGeometry x="603" y="1338.73" width="60" height="30" as="geometry" />
        </mxCell>
        <mxCell id="602wP9tqV1aVJvDdz1jR-24" value="&lt;font style=&quot;font-size: 10px; background-color: rgb(255, 255, 255);&quot;&gt;&amp;lt;&amp;lt;extend&amp;gt;&amp;gt;&lt;/font&gt;" style="text;html=1;strokeColor=none;fillColor=none;align=center;verticalAlign=middle;whiteSpace=wrap;rounded=0;" vertex="1" parent="1">
          <mxGeometry x="524" y="1366" width="60" height="30" as="geometry" />
        </mxCell>
        <mxCell id="602wP9tqV1aVJvDdz1jR-25" value="&lt;font style=&quot;font-size: 10px; background-color: rgb(255, 255, 255);&quot;&gt;&amp;lt;&amp;lt;extend&amp;gt;&amp;gt;&lt;/font&gt;" style="text;html=1;strokeColor=none;fillColor=none;align=center;verticalAlign=middle;whiteSpace=wrap;rounded=0;" vertex="1" parent="1">
          <mxGeometry x="501" y="1514" width="60" height="30" as="geometry" />
        </mxCell>
        <mxCell id="602wP9tqV1aVJvDdz1jR-26" value="&lt;font style=&quot;font-size: 10px; background-color: rgb(255, 255, 255);&quot;&gt;&amp;lt;&amp;lt;extend&amp;gt;&amp;gt;&lt;/font&gt;" style="text;html=1;strokeColor=none;fillColor=none;align=center;verticalAlign=middle;whiteSpace=wrap;rounded=0;" vertex="1" parent="1">
          <mxGeometry x="688" y="1521.73" width="60" height="30" as="geometry" />
        </mxCell>
        <mxCell id="602wP9tqV1aVJvDdz1jR-27" value="&lt;font style=&quot;font-size: 10px; background-color: rgb(255, 255, 255);&quot;&gt;&amp;lt;&amp;lt;extend&amp;gt;&amp;gt;&lt;/font&gt;" style="text;html=1;strokeColor=none;fillColor=none;align=center;verticalAlign=middle;whiteSpace=wrap;rounded=0;" vertex="1" parent="1">
          <mxGeometry x="680" y="1363" width="60" height="30" as="geometry" />
        </mxCell>
        <mxCell id="602wP9tqV1aVJvDdz1jR-28" value="&lt;font style=&quot;font-size: 10px; background-color: rgb(255, 255, 255);&quot;&gt;&amp;lt;&amp;lt;include&amp;gt;&amp;gt;&lt;/font&gt;" style="text;html=1;strokeColor=none;fillColor=none;align=center;verticalAlign=middle;whiteSpace=wrap;rounded=0;" vertex="1" parent="1">
          <mxGeometry x="804" y="1356" width="60" height="30" as="geometry" />
        </mxCell>
        <mxCell id="602wP9tqV1aVJvDdz1jR-29" value="&lt;font style=&quot;font-size: 10px; background-color: rgb(255, 255, 255);&quot;&gt;&amp;lt;&amp;lt;include&amp;gt;&amp;gt;&lt;/font&gt;" style="text;html=1;strokeColor=none;fillColor=none;align=center;verticalAlign=middle;whiteSpace=wrap;rounded=0;" vertex="1" parent="1">
          <mxGeometry x="835" y="1528" width="60" height="30" as="geometry" />
        </mxCell>
        <mxCell id="602wP9tqV1aVJvDdz1jR-30" value="&lt;font style=&quot;font-size: 10px; background-color: rgb(255, 255, 255);&quot;&gt;&amp;lt;&amp;lt;include&amp;gt;&amp;gt;&lt;/font&gt;" style="text;html=1;strokeColor=none;fillColor=none;align=center;verticalAlign=middle;whiteSpace=wrap;rounded=0;" vertex="1" parent="1">
          <mxGeometry x="806" y="1429" width="60" height="30" as="geometry" />
        </mxCell>
        <mxCell id="602wP9tqV1aVJvDdz1jR-31" value="Удалить слово" style="ellipse;whiteSpace=wrap;html=1;" vertex="1" parent="1">
          <mxGeometry x="575" y="1487" width="110" height="60" as="geometry" />
        </mxCell>
        <mxCell id="602wP9tqV1aVJvDdz1jR-32" value="&lt;font style=&quot;font-size: 10px; background-color: rgb(255, 255, 255);&quot;&gt;&amp;lt;&amp;lt;extend&amp;gt;&amp;gt;&lt;/font&gt;" style="text;html=1;strokeColor=none;fillColor=none;align=center;verticalAlign=middle;whiteSpace=wrap;rounded=0;" vertex="1" parent="1">
          <mxGeometry x="600" y="1593" width="60" height="30" as="geometry" />
        </mxCell>
        <mxCell id="602wP9tqV1aVJvDdz1jR-33" style="edgeStyle=none;rounded=0;orthogonalLoop=1;jettySize=auto;html=1;dashed=1;endArrow=blockThin;endFill=1;" edge="1" parent="1" source="602wP9tqV1aVJvDdz1jR-31" target="602wP9tqV1aVJvDdz1jR-12">
          <mxGeometry relative="1" as="geometry">
            <mxPoint x="515" y="1694" as="targetPoint" />
          </mxGeometry>
        </mxCell>
        <mxCell id="602wP9tqV1aVJvDdz1jR-35" value="&lt;h1&gt;&lt;span style=&quot;font-size: 12px; font-weight: normal;&quot;&gt;Проанализируйте представленную диаграмму и дополните ее согласно заданию&lt;/span&gt;&lt;br&gt;&lt;/h1&gt;" style="text;html=1;strokeColor=#82b366;fillColor=#d5e8d4;spacing=5;spacingTop=-20;whiteSpace=wrap;overflow=hidden;rounded=0;fontSize=16;" vertex="1" parent="1">
          <mxGeometry x="-415" y="1197" width="496" height="77" as="geometry" />
        </mxCell>
        <mxCell id="KzcBjweuIpP4eKwW1O9H-2" value="Открыть карточку для проверки знаний" style="ellipse;whiteSpace=wrap;html=1;" vertex="1" parent="1">
          <mxGeometry x="492" y="991" width="144" height="79" as="geometry" />
        </mxCell>
        <mxCell id="KzcBjweuIpP4eKwW1O9H-3" style="edgeStyle=none;rounded=0;orthogonalLoop=1;jettySize=auto;html=1;endArrow=none;endFill=0;" edge="1" parent="1" target="KzcBjweuIpP4eKwW1O9H-2">
          <mxGeometry relative="1" as="geometry">
            <mxPoint x="172" y="1378" as="sourcePoint" />
            <mxPoint x="465" y="1212" as="targetPoint" />
          </mxGeometry>
        </mxCell>
        <mxCell id="KzcBjweuIpP4eKwW1O9H-6" value="Выбрать верный перевод" style="ellipse;whiteSpace=wrap;html=1;" vertex="1" parent="1">
          <mxGeometry x="752" y="1102" width="110" height="60" as="geometry" />
        </mxCell>
        <mxCell id="KzcBjweuIpP4eKwW1O9H-7" value="Удалить карточку" style="ellipse;whiteSpace=wrap;html=1;" vertex="1" parent="1">
          <mxGeometry x="854" y="1021" width="110" height="60" as="geometry" />
        </mxCell>
        <mxCell id="KzcBjweuIpP4eKwW1O9H-12" value="" style="edgeStyle=none;rounded=0;orthogonalLoop=1;jettySize=auto;html=1;dashed=1;endArrow=blockThin;endFill=1;" edge="1" parent="1" source="KzcBjweuIpP4eKwW1O9H-6" target="KzcBjweuIpP4eKwW1O9H-2">
          <mxGeometry relative="1" as="geometry">
            <mxPoint x="734" y="1085" as="targetPoint" />
            <mxPoint x="766" y="1112" as="sourcePoint" />
          </mxGeometry>
        </mxCell>
        <mxCell id="KzcBjweuIpP4eKwW1O9H-13" value="&lt;font style=&quot;font-size: 10px; background-color: rgb(255, 255, 255);&quot;&gt;&amp;lt;&amp;lt;extend&amp;gt;&amp;gt;&lt;/font&gt;" style="text;html=1;strokeColor=none;fillColor=none;align=center;verticalAlign=middle;whiteSpace=wrap;rounded=0;rotation=0;" vertex="1" parent="1">
          <mxGeometry x="666" y="1059" width="60" height="30" as="geometry" />
        </mxCell>
        <mxCell id="KzcBjweuIpP4eKwW1O9H-15" value="" style="edgeStyle=none;rounded=0;orthogonalLoop=1;jettySize=auto;html=1;dashed=1;endArrow=blockThin;endFill=1;" edge="1" parent="1" target="KzcBjweuIpP4eKwW1O9H-2" source="KzcBjweuIpP4eKwW1O9H-7">
          <mxGeometry relative="1" as="geometry">
            <mxPoint x="668" y="959" as="targetPoint" />
            <mxPoint x="800" y="1030" as="sourcePoint" />
          </mxGeometry>
        </mxCell>
        <mxCell id="KzcBjweuIpP4eKwW1O9H-16" value="&lt;font style=&quot;font-size: 10px; background-color: rgb(255, 255, 255);&quot;&gt;&amp;lt;&amp;lt;extend&amp;gt;&amp;gt;&lt;/font&gt;" style="text;html=1;strokeColor=none;fillColor=none;align=center;verticalAlign=middle;whiteSpace=wrap;rounded=0;rotation=0;" vertex="1" parent="1">
          <mxGeometry x="708" y="1021" width="60" height="30" as="geometry" />
        </mxCell>
        <mxCell id="KzcBjweuIpP4eKwW1O9H-17" style="edgeStyle=none;rounded=0;orthogonalLoop=1;jettySize=auto;html=1;dashed=1;endArrow=blockThin;endFill=1;" edge="1" parent="1" source="KzcBjweuIpP4eKwW1O9H-2" target="602wP9tqV1aVJvDdz1jR-22">
          <mxGeometry relative="1" as="geometry">
            <mxPoint x="727.5" y="1207" as="sourcePoint" />
            <mxPoint x="944.5" y="1360" as="targetPoint" />
          </mxGeometry>
        </mxCell>
        <mxCell id="KzcBjweuIpP4eKwW1O9H-18" value="&lt;font style=&quot;font-size: 10px; background-color: rgb(255, 255, 255);&quot;&gt;&amp;lt;&amp;lt;include&amp;gt;&amp;gt;&lt;/font&gt;" style="text;html=1;strokeColor=none;fillColor=none;align=center;verticalAlign=middle;whiteSpace=wrap;rounded=0;" vertex="1" parent="1">
          <mxGeometry x="719" y="1212" width="60" height="30" as="geometry" />
        </mxCell>
        <mxCell id="KzcBjweuIpP4eKwW1O9H-19" style="edgeStyle=none;rounded=0;orthogonalLoop=1;jettySize=auto;html=1;entryX=0.069;entryY=0.221;entryDx=0;entryDy=0;entryPerimeter=0;endArrow=blockThin;endFill=1;dashed=1;" edge="1" parent="1" source="KzcBjweuIpP4eKwW1O9H-2">
          <mxGeometry relative="1" as="geometry">
            <mxPoint x="530" y="1483" as="sourcePoint" />
            <mxPoint x="600" y="1647" as="targetPoint" />
          </mxGeometry>
        </mxCell>
        <mxCell id="KzcBjweuIpP4eKwW1O9H-20" value="&lt;font style=&quot;font-size: 10px; background-color: rgb(255, 255, 255);&quot;&gt;&amp;lt;&amp;lt;extend&amp;gt;&amp;gt;&lt;/font&gt;" style="text;html=1;strokeColor=none;fillColor=none;align=center;verticalAlign=middle;whiteSpace=wrap;rounded=0;" vertex="1" parent="1">
          <mxGeometry x="553" y="1176" width="60" height="30" as="geometry" />
        </mxCell>
        <mxCell id="KzcBjweuIpP4eKwW1O9H-21" value="Просмотреть видео с вариантами произношения слова" style="ellipse;whiteSpace=wrap;html=1;" vertex="1" parent="1">
          <mxGeometry x="346" y="1404" width="120" height="85" as="geometry" />
        </mxCell>
        <mxCell id="KzcBjweuIpP4eKwW1O9H-24" value="" style="edgeStyle=none;rounded=0;orthogonalLoop=1;jettySize=auto;html=1;entryX=0.036;entryY=0.7;entryDx=0;entryDy=0;entryPerimeter=0;dashed=1;fontSize=10;endArrow=blockThin;endFill=1;" edge="1" parent="1" target="602wP9tqV1aVJvDdz1jR-10" source="KzcBjweuIpP4eKwW1O9H-21">
          <mxGeometry relative="1" as="geometry">
            <mxPoint x="452" y="1427.23" as="sourcePoint" />
            <mxPoint x="490.84000000000015" y="1351.99" as="targetPoint" />
          </mxGeometry>
        </mxCell>
        <mxCell id="KzcBjweuIpP4eKwW1O9H-25" value="" style="edgeStyle=none;rounded=0;orthogonalLoop=1;jettySize=auto;html=1;dashed=1;fontSize=10;endArrow=blockThin;endFill=1;entryX=0.013;entryY=0.314;entryDx=0;entryDy=0;entryPerimeter=0;" edge="1" parent="1" target="602wP9tqV1aVJvDdz1jR-12" source="KzcBjweuIpP4eKwW1O9H-21">
          <mxGeometry relative="1" as="geometry">
            <mxPoint x="412" y="1487" as="sourcePoint" />
            <mxPoint x="540" y="1617" as="targetPoint" />
          </mxGeometry>
        </mxCell>
        <mxCell id="KzcBjweuIpP4eKwW1O9H-26" value="&lt;font style=&quot;font-size: 10px; background-color: rgb(255, 255, 255);&quot;&gt;&amp;lt;&amp;lt;extend&amp;gt;&amp;gt;&lt;/font&gt;" style="text;html=1;strokeColor=none;fillColor=none;align=center;verticalAlign=middle;whiteSpace=wrap;rounded=0;" vertex="1" parent="1">
          <mxGeometry x="498" y="1336" width="60" height="30" as="geometry" />
        </mxCell>
        <mxCell id="KzcBjweuIpP4eKwW1O9H-27" value="&lt;font style=&quot;font-size: 10px; background-color: rgb(255, 255, 255);&quot;&gt;&amp;lt;&amp;lt;extend&amp;gt;&amp;gt;&lt;/font&gt;" style="text;html=1;strokeColor=none;fillColor=none;align=center;verticalAlign=middle;whiteSpace=wrap;rounded=0;" vertex="1" parent="1">
          <mxGeometry x="438" y="1547" width="60" height="30" as="geometry" />
        </mxCell>
        <mxCell id="g1nnnRq2N-H2QRnCvzux-1" value="Добавить карточку" style="ellipse;whiteSpace=wrap;html=1;" vertex="1" parent="1">
          <mxGeometry x="792" y="954" width="110" height="60" as="geometry" />
        </mxCell>
        <mxCell id="g1nnnRq2N-H2QRnCvzux-2" value="" style="edgeStyle=none;rounded=0;orthogonalLoop=1;jettySize=auto;html=1;dashed=1;endArrow=blockThin;endFill=1;" edge="1" parent="1" source="g1nnnRq2N-H2QRnCvzux-1" target="KzcBjweuIpP4eKwW1O9H-2">
          <mxGeometry relative="1" as="geometry">
            <mxPoint x="498" y="1051" as="targetPoint" />
            <mxPoint x="81" y="1043.0816326530612" as="sourcePoint" />
          </mxGeometry>
        </mxCell>
        <mxCell id="g1nnnRq2N-H2QRnCvzux-5" value="&lt;font style=&quot;font-size: 10px; background-color: rgb(255, 255, 255);&quot;&gt;&amp;lt;&amp;lt;extend&amp;gt;&amp;gt;&lt;/font&gt;" style="text;html=1;strokeColor=none;fillColor=none;align=center;verticalAlign=middle;whiteSpace=wrap;rounded=0;rotation=0;" vertex="1" parent="1">
          <mxGeometry x="694" y="984" width="60" height="30" as="geometry" />
        </mxCell>
        <mxCell id="g1nnnRq2N-H2QRnCvzux-7" value="Постановка видео на паузу" style="ellipse;whiteSpace=wrap;html=1;" vertex="1" parent="1">
          <mxGeometry x="354" y="1238" width="110" height="60" as="geometry" />
        </mxCell>
        <mxCell id="g1nnnRq2N-H2QRnCvzux-8" value="Перемотка видео" style="ellipse;whiteSpace=wrap;html=1;" vertex="1" parent="1">
          <mxGeometry x="462" y="1201" width="110" height="60" as="geometry" />
        </mxCell>
        <mxCell id="g1nnnRq2N-H2QRnCvzux-9" style="edgeStyle=none;rounded=0;orthogonalLoop=1;jettySize=auto;html=1;dashed=1;endArrow=blockThin;endFill=1;" edge="1" parent="1" source="g1nnnRq2N-H2QRnCvzux-8" target="KzcBjweuIpP4eKwW1O9H-21">
          <mxGeometry relative="1" as="geometry">
            <mxPoint x="446" y="1416" as="targetPoint" />
            <mxPoint x="492" y="1257" as="sourcePoint" />
          </mxGeometry>
        </mxCell>
        <mxCell id="g1nnnRq2N-H2QRnCvzux-10" value="&lt;font style=&quot;font-size: 10px; background-color: rgb(255, 255, 255);&quot;&gt;&amp;lt;&amp;lt;extend&amp;gt;&amp;gt;&lt;/font&gt;" style="text;html=1;strokeColor=none;fillColor=none;align=center;verticalAlign=middle;whiteSpace=wrap;rounded=0;" vertex="1" parent="1">
          <mxGeometry x="469" y="1272" width="60" height="30" as="geometry" />
        </mxCell>
        <mxCell id="g1nnnRq2N-H2QRnCvzux-11" value="" style="edgeStyle=none;rounded=0;orthogonalLoop=1;jettySize=auto;html=1;dashed=1;fontSize=10;endArrow=blockThin;endFill=1;entryX=0.5;entryY=0;entryDx=0;entryDy=0;" edge="1" parent="1" source="g1nnnRq2N-H2QRnCvzux-7" target="KzcBjweuIpP4eKwW1O9H-21">
          <mxGeometry relative="1" as="geometry">
            <mxPoint x="404" y="1298" as="sourcePoint" />
            <mxPoint x="399" y="1421.5" as="targetPoint" />
          </mxGeometry>
        </mxCell>
        <mxCell id="g1nnnRq2N-H2QRnCvzux-12" value="&lt;font style=&quot;font-size: 10px; background-color: rgb(255, 255, 255);&quot;&gt;&amp;lt;&amp;lt;extend&amp;gt;&amp;gt;&lt;/font&gt;" style="text;html=1;strokeColor=none;fillColor=none;align=center;verticalAlign=middle;whiteSpace=wrap;rounded=0;" vertex="1" parent="1">
          <mxGeometry x="371" y="1308.73" width="60" height="30" as="geometry" />
        </mxCell>
        <mxCell id="g1nnnRq2N-H2QRnCvzux-16" style="edgeStyle=none;rounded=0;orthogonalLoop=1;jettySize=auto;html=1;endArrow=none;endFill=0;" edge="1" parent="1" source="602wP9tqV1aVJvDdz1jR-8" target="KzcBjweuIpP4eKwW1O9H-21">
          <mxGeometry relative="1" as="geometry">
            <mxPoint x="110" y="1124" as="sourcePoint" />
            <mxPoint x="164" y="1119" as="targetPoint" />
          </mxGeometry>
        </mxCell>
        <mxCell id="g1nnnRq2N-H2QRnCvzux-17" value="Воспроизведение видео" style="ellipse;whiteSpace=wrap;html=1;" vertex="1" parent="1">
          <mxGeometry x="354" y="1623" width="110" height="60" as="geometry" />
        </mxCell>
        <mxCell id="g1nnnRq2N-H2QRnCvzux-18" value="" style="edgeStyle=none;rounded=0;orthogonalLoop=1;jettySize=auto;html=1;dashed=1;fontSize=10;endArrow=blockThin;endFill=1;" edge="1" parent="1" source="g1nnnRq2N-H2QRnCvzux-17" target="KzcBjweuIpP4eKwW1O9H-21">
          <mxGeometry relative="1" as="geometry">
            <mxPoint x="405.5" y="1600" as="sourcePoint" />
            <mxPoint x="405.5" y="1487" as="targetPoint" />
          </mxGeometry>
        </mxCell>
        <mxCell id="g1nnnRq2N-H2QRnCvzux-19" value="&lt;font style=&quot;font-size: 10px; background-color: rgb(255, 255, 255);&quot;&gt;&amp;lt;&amp;lt;extend&amp;gt;&amp;gt;&lt;/font&gt;" style="text;html=1;strokeColor=none;fillColor=none;align=center;verticalAlign=middle;whiteSpace=wrap;rounded=0;" vertex="1" parent="1">
          <mxGeometry x="361" y="1571" width="60" height="30" as="geometry" />
        </mxCell>
      </root>
    </mxGraphModel>
  </diagram>
</mxfile>
